<svg width="19" height="19" viewBox="0 0 19 19" fill="none" xmlns="http://www.w3.org/2000/svg">
<path d="M9.625 13.375C11.6961 13.375 13.375 11.6961 13.375 9.625C13.375 7.55393 11.6961 5.875 9.625 5.875C7.55393 5.875 5.875 7.55393 5.875 9.625C5.875 11.6961 7.55393 13.375 9.625 13.375Z" stroke="white" stroke-opacity="0.8" stroke-width="1.5" stroke-miterlimit="10"/>
<path d="M13.75 1H5.5C3.01472 1 1 3.01472 1 5.5V13.75C1 16.2353 3.01472 18.25 5.5 18.25H13.75C16.2353 18.25 18.25 16.2353 18.25 13.75V5.5C18.25 3.01472 16.2353 1 13.75 1Z" stroke="white" stroke-opacity="0.8" stroke-width="1.5" stroke-linecap="round" stroke-linejoin="round"/>
<path d="M14.5 5.875C15.1213 5.875 15.625 5.37132 15.625 4.75C15.625 4.12868 15.1213 3.625 14.5 3.625C13.8787 3.625 13.375 4.12868 13.375 4.75C13.375 5.37132 13.8787 5.875 14.5 5.875Z" fill="white" fill-opacity="0.8"/>
</svg>
